<?xml version="1.0" encoding="UTF-8"?>
<svg version="1.1" xmlns="http://www.w3.org/2000/svg" width="50" height="50">
<path d="M0 0 C3 1 3 1 4.38671875 3.6171875 C4.81597656 4.69226563 5.24523437 5.76734375 5.6875 6.875 C6.34298828 8.47988281 6.34298828 8.47988281 7.01171875 10.1171875 C8 13 8 13 8 16 C9.299375 15.979375 10.59875 15.95875 11.9375 15.9375 C16.69382325 15.92995028 21.28388953 16.40112883 26 17 C25.71248893 20.21422633 24.90082842 21.09344717 22.49609375 23.359375 C21.48675781 24.14828125 20.47742187 24.9371875 19.4375 25.75 C18.42558594 26.54921875 17.41367187 27.3484375 16.37109375 28.171875 C15.58863281 28.77515625 14.80617187 29.3784375 14 30 C14.2165625 30.96421875 14.433125 31.9284375 14.65625 32.921875 C14.9346875 34.18515625 15.213125 35.4484375 15.5 36.75 C15.7784375 38.00296875 16.056875 39.2559375 16.34375 40.546875 C17 44 17 44 17 48 C12.13737993 47.21053933 8.67238257 44.10747848 4.75390625 41.30078125 C2.09834048 39.69750752 2.09834048 39.69750752 -0.55859375 40.59765625 C-3.82243039 42.47240401 -6.85221329 44.57376306 -9.9140625 46.7578125 C-12 48 -12 48 -15 48 C-14.41509121 41.85845775 -13.45933748 35.99320151 -12 30 C-13.299375 28.96939453 -13.299375 28.96939453 -14.625 27.91796875 C-15.75038205 27.00828493 -16.87536134 26.0981027 -18 25.1875 C-18.57234375 24.73568359 -19.1446875 24.28386719 -19.734375 23.81835938 C-21.21329815 22.61233276 -22.61296429 21.31066618 -24 20 C-24 19.01 -24 18.02 -24 17 C-17.93303301 16.22959149 -12.11485027 15.90293888 -6 16 C-5.87625 15.28328125 -5.7525 14.5665625 -5.625 13.828125 C-4.99457989 10.97547399 -4.10066194 8.45309623 -3 5.75 C-2.649375 4.87859375 -2.29875 4.0071875 -1.9375 3.109375 C-1 1 -1 1 0 0 Z M1 7 C0.70137315 11.00045124 0.48484159 14.99654292 0.34082031 19.00561523 C0.28077607 20.36548825 0.19908804 21.72459567 0.09472656 23.08178711 C-0.24484465 27.61439698 -0.31298211 31.6292198 1 36 C4.62343067 39.31888067 8.43960926 41.23436958 13 43 C12.84660156 42.28094482 12.69320312 41.56188965 12.53515625 40.82104492 C10.51871658 31.36898396 10.51871658 31.36898396 11 28 C12.96875 25.98046875 12.96875 25.98046875 15.5 24.1875 C16.3353125 23.58292969 17.170625 22.97835938 18.03125 22.35546875 C18.6809375 21.90816406 19.330625 21.46085937 20 21 C18.1371051 18.69939466 18.1371051 18.69939466 15.1796875 18.8046875 C14.08914062 18.82789063 12.99859375 18.85109375 11.875 18.875 C10.23144531 18.90207031 10.23144531 18.90207031 8.5546875 18.9296875 C7.71164063 18.95289063 6.86859375 18.97609375 6 19 C5.80664062 18.30132812 5.61328125 17.60265625 5.4140625 16.8828125 C5.15367188 15.97273438 4.89328125 15.06265625 4.625 14.125 C4.36976562 13.22007813 4.11453125 12.31515625 3.8515625 11.3828125 C3.1395685 8.85430274 3.1395685 8.85430274 1 7 Z " fill="#F1D487" transform="translate(24,1)"/>
<path d="M0 0 C0 7.92 0 15.84 0 24 C-7 24 -7 24 -9 23 C-8.505 18.545 -8.505 18.545 -8 14 C-9.32 13.67 -10.64 13.34 -12 13 C-17.61403509 10.75438596 -17.61403509 10.75438596 -19.375 7.3125 C-19.58125 6.549375 -19.7875 5.78625 -20 5 C-17.59066341 2.59066341 -11.38783368 3.53349615 -8.125 3.37890625 C-7.09375 3.25386719 -6.0625 3.12882812 -5 3 C-4.67 2.34 -4.34 1.68 -4 1 C-1 0 -1 0 0 0 Z " fill="#F9B006" transform="translate(23,15)"/>
<path d="M0 0 C3 1 3 1 4 3 C4.039992 4.99960012 4.04346799 7.00047242 4 9 C3.34 9 2.68 9 2 9 C2 18.57 2 28.14 2 38 C1.01 38 0.02 38 -1 38 C-1.495 26.615 -1.495 26.615 -2 15 C-2.99 15 -3.98 15 -5 15 C-5.33 15.99 -5.66 16.98 -6 18 C-10.62 18.33 -15.24 18.66 -20 19 C-19.67 20.32 -19.34 21.64 -19 23 C-20.9375 22.25 -20.9375 22.25 -23 21 C-23.62890625 18.921875 -23.62890625 18.921875 -24 17 C-17.93303301 16.22959149 -12.11485027 15.90293888 -6 16 C-5.87625 15.28328125 -5.7525 14.5665625 -5.625 13.828125 C-4.99457989 10.97547399 -4.10066194 8.45309623 -3 5.75 C-2.649375 4.87859375 -2.29875 4.0071875 -1.9375 3.109375 C-1 1 -1 1 0 0 Z " fill="#EFB219" transform="translate(24,1)"/>
<path d="M0 0 C0.763125 0.309375 1.52625 0.61875 2.3125 0.9375 C4.18789677 1.67893593 6.08684652 2.36228217 8 3 C8.125 9.75 8.125 9.75 7 12 C8.423125 11.9690625 8.423125 11.9690625 9.875 11.9375 C13 12 13 12 15 13 C14.64582169 15.80900036 14.21351117 16.81456002 12.0390625 18.703125 C11.24242187 19.21359375 10.44578125 19.7240625 9.625 20.25 C8.83351563 20.77078125 8.04203125 21.2915625 7.2265625 21.828125 C5 23 5 23 2 23 C2.45604788 18.21149723 3.01068135 13.86232727 4.375 9.25 C4.9872913 7.07485019 4.9872913 7.07485019 5 5 C2.81145577 1.89138486 2.81145577 1.89138486 0 0 Z " fill="#F7B31B" transform="translate(7,26)"/>
<path d="M0 0 C2.97903734 2.97903734 4 5.80285329 4 10 C5.299375 9.979375 6.59875 9.95875 7.9375 9.9375 C12.69382325 9.92995028 17.28388953 10.40112883 22 11 C22 11.99 22 12.98 22 14 C15.4 13.67 8.8 13.34 2 13 C-1.375 5.125 -1.375 5.125 0 0 Z " fill="#F0D283" transform="translate(28,7)"/>
<path d="M0 0 C3 1 3 1 4 3 C4.039992 4.99960012 4.04346799 7.00047242 4 9 C3.34 9 2.68 9 2 9 C1.67 17.91 1.34 26.82 1 36 C0.67 36 0.34 36 0 36 C0 27.09 0 18.18 0 9 C-1.65 10.32 -3.3 11.64 -5 13 C-4.54803755 11.39402675 -4.08817673 9.79027492 -3.625 8.1875 C-3.36976562 7.29417969 -3.11453125 6.40085937 -2.8515625 5.48046875 C-2 3 -2 3 0 0 Z " fill="#E8B94A" transform="translate(24,1)"/>
<path d="M0 0 C2.31 0.33 4.62 0.66 7 1 C4.3358507 3.74250664 1.77317639 6.18004554 -1.3125 8.4375 C-4.33249693 10.76844698 -4.33249693 10.76844698 -4.375 14.3125 C-4.189375 15.6428125 -4.189375 15.6428125 -4 17 C-4.99 17.33 -5.98 17.66 -7 18 C-7.96615346 14.88997316 -8.49235504 12.24133735 -8 9 C-5.3686554 6.07156811 -2.35443873 4.03358761 1 2 C0.67 1.34 0.34 0.68 0 0 Z " fill="#F0D27F" transform="translate(42,20)"/>
<path d="M0 0 C0.5625 1.9375 0.5625 1.9375 1 4 C-0.94090826 5.94090826 -4.47293902 5.39919435 -7.0625 5.5625 C-8.35285156 5.64628906 -9.64320312 5.73007812 -10.97265625 5.81640625 C-11.97167969 5.87699219 -12.97070312 5.93757813 -14 6 C-13.67 7.32 -13.34 8.64 -13 10 C-14.9375 9.25 -14.9375 9.25 -17 8 C-17.62890625 5.921875 -17.62890625 5.921875 -18 4 C-11.93303301 3.22959149 -6.11485027 2.90293888 0 3 C0 2.01 0 1.02 0 0 Z " fill="#F4CC6A" transform="translate(18,14)"/>
<path d="M0 0 C0.33 0.99 0.66 1.98 1 3 C1.66 3 2.32 3 3 3 C4.13764351 7.26616316 5 10.56486311 5 15 C3.0625 14.6875 3.0625 14.6875 1 14 C0.67 13.01 0.34 12.02 0 11 C0.66 11 1.32 11 2 11 C1.67 10.484375 1.34 9.96875 1 9.4375 C-0.32010877 6.21973488 -0.13242105 3.4429472 0 0 Z " fill="#EDC664" transform="translate(36,34)"/>
<path d="M0 0 C0.5534764 2.07553648 1 3.84365964 1 6 C3.97 6.495 3.97 6.495 7 7 C5.06745228 9.0245738 3.36841312 10.42105792 1 12 C0.01 12 -0.98 12 -2 12 C-1.85831863 10.56208484 -1.71148957 9.1246763 -1.5625 7.6875 C-1.48128906 6.88699219 -1.40007813 6.08648437 -1.31640625 5.26171875 C-1 3 -1 3 0 0 Z " fill="#F2CD68" transform="translate(11,37)"/>
<path d="M0 0 C0 0.99 0 1.98 0 3 C-6.6 2.67 -13.2 2.34 -20 2 C-20 1.67 -20 1.34 -20 1 C-13.29980211 0.29867087 -6.73742646 -0.11044961 0 0 Z " fill="#F1BE4F" transform="translate(50,18)"/>
<path d="M0 0 C0.763125 0.309375 1.52625 0.61875 2.3125 0.9375 C4.18789677 1.67893593 6.08684652 2.36228217 8 3 C8 5.31 8 7.62 8 10 C7.01 10.33 6.02 10.66 5 11 C5.1546875 9.6696875 5.1546875 9.6696875 5.3125 8.3125 C4.90501428 3.99315142 3.2277297 2.74357025 0 0 Z " fill="#F4C657" transform="translate(7,26)"/>
<path d="M0 0 C2.625 0.6875 2.625 0.6875 5 2 C5.33 2.99 5.66 3.98 6 5 C4.88625 4.814375 3.7725 4.62875 2.625 4.4375 C-0.82568861 3.68319343 -0.82568861 3.68319343 -3 5 C-3 4.01 -3 3.02 -3 2 C-2.01 1.34 -1.02 0.68 0 0 Z " fill="#EFCE71" transform="translate(25,37)"/>
<path d="M0 0 C3.63 0.33 7.26 0.66 11 1 C11 1.66 11 2.32 11 3 C7.37 3 3.74 3 0 3 C0 2.01 0 1.02 0 0 Z " fill="#EFC96D" transform="translate(30,16)"/>
<path d="M0 0 C3 1 3 1 4 3 C4.039992 4.99960012 4.04346799 7.00047242 4 9 C3.34 9 2.68 9 2 9 C0.875 4.25 0.875 4.25 2 2 C1.01 2.33 0.02 2.66 -1 3 C-0.67 2.01 -0.34 1.02 0 0 Z " fill="#F0CB65" transform="translate(24,1)"/>
<path d="M0 0 C1.2065625 0.0309375 1.2065625 0.0309375 2.4375 0.0625 C2.128125 0.660625 1.81875 1.25875 1.5 1.875 C0.33540296 4.15206772 0.33540296 4.15206772 -0.5625 7.0625 C-1.5525 5.0825 -2.5425 3.1025 -3.5625 1.0625 C-2.5625 0.0625 -2.5625 0.0625 0 0 Z " fill="#F4B624" transform="translate(6.5625,18.9375)"/>
</svg>
